<?xml version="1.0" encoding="UTF-8"?>
<svg xmlns="http://www.w3.org/2000/svg" viewBox="0 0 375.41 375.3">
  <defs>
    <style>
      .cls-1 {
        fill: #a7a9ac;
      }

      .cls-2 {
        fill: #939598;
      }

      .cls-3 {
        fill: none;
        stroke: #650a34;
        stroke-miterlimit: 10;
      }

      .cls-4 {
        fill: #808285;
      }
    </style>
  </defs>
  <g id="Layer_21" data-name="Layer 21">
    <g>
      <g>
        <rect class="cls-2" x=".82" y=".71" width="31.16" height="31.16"/>
        <rect class="cls-2" x="31.97" y=".71" width="31.16" height="31.16"/>
        <rect class="cls-2" x="63.13" y=".71" width="31.16" height="31.16"/>
        <rect class="cls-2" x="94.29" y=".71" width="31.16" height="31.16"/>
        <rect class="cls-2" x="125.45" y=".71" width="31.16" height="31.16"/>
        <rect class="cls-2" x="156.6" y=".71" width="31.16" height="31.16"/>
        <rect class="cls-2" x=".82" y="31.86" width="31.16" height="31.16"/>
        <rect class="cls-2" x="31.97" y="31.86" width="31.16" height="31.16"/>
        <rect class="cls-2" x="63.13" y="31.86" width="31.16" height="31.16"/>
        <rect class="cls-2" x="94.29" y="31.86" width="31.16" height="31.16"/>
        <rect class="cls-2" x="125.45" y="31.86" width="31.16" height="31.16"/>
        <rect class="cls-2" x="156.6" y="31.86" width="31.16" height="31.16"/>
        <rect class="cls-2" x=".82" y="63.02" width="31.16" height="31.16"/>
        <rect class="cls-2" x="31.97" y="63.02" width="31.16" height="31.16"/>
        <rect class="cls-2" x="63.13" y="63.02" width="31.16" height="31.16"/>
        <rect class="cls-2" x="94.29" y="63.02" width="31.16" height="31.16"/>
        <rect class="cls-2" x="125.45" y="63.02" width="31.16" height="31.16"/>
        <rect class="cls-2" x="156.6" y="63.02" width="31.16" height="31.16"/>
        <rect class="cls-2" x=".82" y="94.18" width="31.16" height="31.16"/>
        <rect class="cls-2" x="31.97" y="94.18" width="31.16" height="31.16"/>
        <rect class="cls-2" x="63.13" y="94.18" width="31.16" height="31.16"/>
        <rect class="cls-2" x="94.29" y="94.18" width="31.16" height="31.16"/>
        <rect class="cls-2" x="125.45" y="94.18" width="31.16" height="31.16"/>
        <rect class="cls-2" x="156.6" y="94.18" width="31.16" height="31.16"/>
        <rect class="cls-2" x=".82" y="125.33" width="31.16" height="31.16"/>
        <rect class="cls-2" x="31.97" y="125.33" width="31.16" height="31.16"/>
        <rect class="cls-2" x="63.13" y="125.33" width="31.16" height="31.16"/>
        <rect class="cls-2" x="94.29" y="125.33" width="31.16" height="31.16"/>
        <rect class="cls-2" x="125.45" y="125.33" width="31.16" height="31.16"/>
        <rect class="cls-2" x="156.6" y="125.33" width="31.16" height="31.16"/>
        <rect class="cls-2" x=".82" y="156.49" width="31.16" height="31.16"/>
        <rect class="cls-2" x="31.97" y="156.49" width="31.16" height="31.16"/>
        <rect class="cls-2" x="63.13" y="156.49" width="31.16" height="31.16"/>
        <rect class="cls-2" x="94.29" y="156.49" width="31.16" height="31.16"/>
        <rect class="cls-2" x="125.45" y="156.49" width="31.16" height="31.16"/>
        <rect class="cls-2" x="156.6" y="156.49" width="31.16" height="31.16"/>
      </g>
      <g>
        <rect class="cls-2" x="343.65" y=".71" width="31.16" height="31.16" transform="translate(375.52 -342.95) rotate(90)"/>
        <rect class="cls-2" x="343.65" y="31.86" width="31.16" height="31.16" transform="translate(406.68 -311.79) rotate(90)"/>
        <rect class="cls-2" x="343.65" y="63.02" width="31.16" height="31.16" transform="translate(437.83 -280.63) rotate(90)"/>
        <rect class="cls-2" x="343.65" y="94.18" width="31.16" height="31.16" transform="translate(468.99 -249.48) rotate(90)"/>
        <rect class="cls-2" x="343.65" y="125.33" width="31.16" height="31.16" transform="translate(500.15 -218.32) rotate(90)"/>
        <rect class="cls-2" x="343.65" y="156.49" width="31.16" height="31.16" transform="translate(531.3 -187.16) rotate(90)"/>
        <rect class="cls-2" x="312.5" y=".71" width="31.16" height="31.16" transform="translate(344.36 -311.79) rotate(90)"/>
        <rect class="cls-2" x="312.5" y="31.86" width="31.16" height="31.16" transform="translate(375.52 -280.63) rotate(90)"/>
        <rect class="cls-2" x="312.5" y="63.02" width="31.16" height="31.16" transform="translate(406.68 -249.48) rotate(90)"/>
        <rect class="cls-2" x="312.5" y="94.18" width="31.16" height="31.16" transform="translate(437.83 -218.32) rotate(90)"/>
        <rect class="cls-2" x="312.5" y="125.33" width="31.16" height="31.16" transform="translate(468.99 -187.16) rotate(90)"/>
        <rect class="cls-2" x="312.5" y="156.49" width="31.16" height="31.16" transform="translate(500.15 -156.01) rotate(90)"/>
        <rect class="cls-2" x="281.34" y=".71" width="31.16" height="31.16" transform="translate(313.2 -280.63) rotate(90)"/>
        <rect class="cls-2" x="281.34" y="31.86" width="31.16" height="31.16" transform="translate(344.36 -249.48) rotate(90)"/>
        <rect class="cls-2" x="281.34" y="63.02" width="31.16" height="31.16" transform="translate(375.52 -218.32) rotate(90)"/>
        <rect class="cls-2" x="281.34" y="94.18" width="31.16" height="31.16" transform="translate(406.68 -187.16) rotate(90)"/>
        <rect class="cls-2" x="281.34" y="125.33" width="31.16" height="31.16" transform="translate(437.83 -156.01) rotate(90)"/>
        <rect class="cls-2" x="281.34" y="156.49" width="31.16" height="31.16" transform="translate(468.99 -124.85) rotate(90)"/>
        <rect class="cls-2" x="250.18" y=".71" width="31.16" height="31.16" transform="translate(282.05 -249.48) rotate(90)"/>
        <rect class="cls-2" x="250.18" y="31.86" width="31.16" height="31.16" transform="translate(313.2 -218.32) rotate(90)"/>
        <rect class="cls-2" x="250.18" y="63.02" width="31.16" height="31.16" transform="translate(344.36 -187.16) rotate(90)"/>
        <rect class="cls-2" x="250.18" y="94.18" width="31.16" height="31.16" transform="translate(375.52 -156.01) rotate(90)"/>
        <rect class="cls-2" x="250.18" y="125.33" width="31.16" height="31.16" transform="translate(406.68 -124.85) rotate(90)"/>
        <rect class="cls-2" x="250.18" y="156.49" width="31.16" height="31.16" transform="translate(437.83 -93.69) rotate(90)"/>
        <rect class="cls-2" x="219.03" y=".71" width="31.16" height="31.16" transform="translate(250.89 -218.32) rotate(90)"/>
        <rect class="cls-2" x="219.03" y="31.86" width="31.16" height="31.16" transform="translate(282.05 -187.16) rotate(90)"/>
        <rect class="cls-2" x="219.03" y="63.02" width="31.16" height="31.16" transform="translate(313.2 -156.01) rotate(90)"/>
        <rect class="cls-2" x="219.03" y="94.18" width="31.16" height="31.16" transform="translate(344.36 -124.85) rotate(90)"/>
        <rect class="cls-2" x="219.03" y="125.33" width="31.16" height="31.16" transform="translate(375.52 -93.69) rotate(90)"/>
        <rect class="cls-2" x="219.03" y="156.49" width="31.16" height="31.16" transform="translate(406.68 -62.53) rotate(90)"/>
        <rect class="cls-2" x="187.87" y=".71" width="31.16" height="31.16" transform="translate(219.73 -187.16) rotate(90)"/>
        <rect class="cls-2" x="187.87" y="31.86" width="31.16" height="31.16" transform="translate(250.89 -156.01) rotate(90)"/>
        <rect class="cls-2" x="187.87" y="63.02" width="31.16" height="31.16" transform="translate(282.05 -124.85) rotate(90)"/>
        <rect class="cls-2" x="187.87" y="94.18" width="31.16" height="31.16" transform="translate(313.2 -93.69) rotate(90)"/>
        <rect class="cls-2" x="187.87" y="125.33" width="31.16" height="31.16" transform="translate(344.36 -62.53) rotate(90)"/>
        <rect class="cls-2" x="187.87" y="156.49" width="31.16" height="31.16" transform="translate(375.52 -31.38) rotate(90)"/>
      </g>
      <g>
        <rect class="cls-2" x=".82" y="187.65" width="31.16" height="31.16"/>
        <rect class="cls-2" x="31.97" y="187.65" width="31.16" height="31.16"/>
        <rect class="cls-2" x="63.13" y="187.65" width="31.16" height="31.16"/>
        <rect class="cls-2" x="94.29" y="187.65" width="31.16" height="31.16"/>
        <rect class="cls-2" x="125.45" y="187.65" width="31.16" height="31.16"/>
        <rect class="cls-2" x="156.6" y="187.65" width="31.16" height="31.16"/>
        <rect class="cls-2" x=".82" y="218.81" width="31.16" height="31.16"/>
        <rect class="cls-2" x="31.97" y="218.81" width="31.16" height="31.16"/>
        <rect class="cls-2" x="63.13" y="218.81" width="31.16" height="31.16"/>
        <rect class="cls-2" x="94.29" y="218.81" width="31.16" height="31.16"/>
        <rect class="cls-2" x="125.45" y="218.81" width="31.16" height="31.16"/>
        <rect class="cls-2" x="156.6" y="218.81" width="31.16" height="31.16"/>
        <rect class="cls-2" x=".82" y="249.96" width="31.16" height="31.16"/>
        <rect class="cls-2" x="31.97" y="249.96" width="31.16" height="31.16"/>
        <rect class="cls-2" x="63.13" y="249.96" width="31.16" height="31.16"/>
        <rect class="cls-2" x="94.29" y="249.96" width="31.16" height="31.16"/>
        <rect class="cls-2" x="125.45" y="249.96" width="31.16" height="31.16"/>
        <rect class="cls-2" x="156.6" y="249.96" width="31.16" height="31.16"/>
        <rect class="cls-2" x=".82" y="281.12" width="31.16" height="31.16"/>
        <rect class="cls-2" x="31.97" y="281.12" width="31.16" height="31.16"/>
        <rect class="cls-2" x="63.13" y="281.12" width="31.16" height="31.16"/>
        <rect class="cls-2" x="94.29" y="281.12" width="31.16" height="31.16"/>
        <rect class="cls-2" x="125.45" y="281.12" width="31.16" height="31.16"/>
        <rect class="cls-2" x="156.6" y="281.12" width="31.16" height="31.16"/>
        <rect class="cls-2" x=".82" y="312.28" width="31.16" height="31.16"/>
        <rect class="cls-2" x="31.97" y="312.28" width="31.16" height="31.16"/>
        <rect class="cls-2" x="63.13" y="312.28" width="31.16" height="31.16"/>
        <rect class="cls-2" x="94.29" y="312.28" width="31.16" height="31.16"/>
        <rect class="cls-2" x="125.45" y="312.28" width="31.16" height="31.16"/>
        <rect class="cls-2" x="156.6" y="312.28" width="31.16" height="31.16"/>
        <rect class="cls-2" x=".82" y="343.43" width="31.16" height="31.16"/>
        <rect class="cls-2" x="31.97" y="343.43" width="31.16" height="31.16"/>
        <rect class="cls-2" x="63.13" y="343.43" width="31.16" height="31.16"/>
        <rect class="cls-2" x="94.29" y="343.43" width="31.16" height="31.16"/>
        <rect class="cls-2" x="125.45" y="343.43" width="31.16" height="31.16"/>
        <rect class="cls-2" x="156.6" y="343.43" width="31.16" height="31.16"/>
      </g>
      <g>
        <rect class="cls-2" x="343.65" y="187.65" width="31.16" height="31.16" transform="translate(562.46 -156.01) rotate(90)"/>
        <rect class="cls-2" x="343.65" y="218.81" width="31.16" height="31.16" transform="translate(593.62 -124.85) rotate(90)"/>
        <rect class="cls-2" x="343.65" y="249.96" width="31.16" height="31.16" transform="translate(624.77 -93.69) rotate(90)"/>
        <rect class="cls-2" x="343.65" y="281.12" width="31.16" height="31.16" transform="translate(655.93 -62.53) rotate(90)"/>
        <rect class="cls-2" x="343.65" y="312.28" width="31.16" height="31.16" transform="translate(687.09 -31.38) rotate(90)"/>
        <rect class="cls-2" x="343.65" y="343.43" width="31.16" height="31.16" transform="translate(718.24 -.22) rotate(90)"/>
        <rect class="cls-2" x="312.5" y="187.65" width="31.16" height="31.16" transform="translate(531.3 -124.85) rotate(90)"/>
        <rect class="cls-2" x="312.5" y="218.81" width="31.16" height="31.16" transform="translate(562.46 -93.69) rotate(90)"/>
        <rect class="cls-2" x="312.5" y="249.96" width="31.16" height="31.16" transform="translate(593.62 -62.53) rotate(90)"/>
        <rect class="cls-2" x="312.5" y="281.12" width="31.16" height="31.16" transform="translate(624.77 -31.38) rotate(90)"/>
        <rect class="cls-2" x="312.5" y="312.28" width="31.16" height="31.16" transform="translate(655.93 -.22) rotate(90)"/>
        <rect class="cls-2" x="312.5" y="343.43" width="31.16" height="31.16" transform="translate(687.09 30.94) rotate(90)"/>
        <rect class="cls-2" x="281.34" y="187.65" width="31.16" height="31.16" transform="translate(500.15 -93.69) rotate(90)"/>
        <rect class="cls-2" x="281.34" y="218.81" width="31.16" height="31.16" transform="translate(531.3 -62.53) rotate(90)"/>
        <rect class="cls-2" x="281.34" y="249.96" width="31.16" height="31.16" transform="translate(562.46 -31.38) rotate(90)"/>
        <rect class="cls-2" x="281.34" y="281.12" width="31.16" height="31.16" transform="translate(593.62 -.22) rotate(90)"/>
        <rect class="cls-2" x="281.34" y="312.28" width="31.16" height="31.16" transform="translate(624.77 30.94) rotate(90)"/>
        <rect class="cls-2" x="281.34" y="343.43" width="31.16" height="31.16" transform="translate(655.93 62.09) rotate(90)"/>
        <rect class="cls-2" x="250.18" y="187.65" width="31.16" height="31.16" transform="translate(468.99 -62.53) rotate(90)"/>
        <rect class="cls-2" x="250.18" y="218.81" width="31.16" height="31.16" transform="translate(500.15 -31.38) rotate(90)"/>
        <rect class="cls-2" x="250.18" y="249.96" width="31.16" height="31.16" transform="translate(531.3 -.22) rotate(90)"/>
        <rect class="cls-2" x="250.18" y="281.12" width="31.16" height="31.16" transform="translate(562.46 30.94) rotate(90)"/>
        <rect class="cls-2" x="250.18" y="312.28" width="31.16" height="31.16" transform="translate(593.62 62.09) rotate(90)"/>
        <rect class="cls-2" x="250.18" y="343.43" width="31.16" height="31.16" transform="translate(624.77 93.25) rotate(90)"/>
        <rect class="cls-2" x="219.03" y="187.65" width="31.16" height="31.16" transform="translate(437.83 -31.38) rotate(90)"/>
        <rect class="cls-2" x="219.03" y="218.81" width="31.16" height="31.16" transform="translate(468.99 -.22) rotate(90)"/>
        <rect class="cls-2" x="219.03" y="249.96" width="31.16" height="31.16" transform="translate(500.15 30.94) rotate(90)"/>
        <rect class="cls-2" x="219.03" y="281.12" width="31.16" height="31.16" transform="translate(531.3 62.09) rotate(90)"/>
        <rect class="cls-2" x="219.03" y="312.28" width="31.16" height="31.16" transform="translate(562.46 93.25) rotate(90)"/>
        <rect class="cls-2" x="219.03" y="343.43" width="31.16" height="31.16" transform="translate(593.62 124.41) rotate(90)"/>
        <rect class="cls-2" x="187.87" y="187.65" width="31.16" height="31.16" transform="translate(406.68 -.22) rotate(90)"/>
        <rect class="cls-2" x="187.87" y="218.81" width="31.16" height="31.16" transform="translate(437.83 30.94) rotate(90)"/>
        <rect class="cls-2" x="187.87" y="249.96" width="31.16" height="31.16" transform="translate(468.99 62.09) rotate(90)"/>
        <rect class="cls-2" x="187.87" y="281.12" width="31.16" height="31.16" transform="translate(500.15 93.25) rotate(90)"/>
        <rect class="cls-2" x="187.87" y="312.28" width="31.16" height="31.16" transform="translate(531.3 124.41) rotate(90)"/>
        <rect class="cls-2" x="187.87" y="343.43" width="31.16" height="31.16" transform="translate(562.46 155.56) rotate(90)"/>
      </g>
    </g>
  </g>
  <g id="VICHY">
    <g id="BASES_VICHY" data-name="BASES VICHY">
      <g id="YIN_MUT" data-name="YIN MUT">
        <g>
          <polygon class="cls-4" points="296.86 296.81 296.99 312.28 312.55 312.28 312.44 296.7 296.86 296.81"/>
          <polygon class="cls-4" points="328.02 296.81 328.15 312.28 343.71 312.28 343.6 296.7 328.02 296.81"/>
          <polygon class="cls-4" points="359.18 296.81 359.31 312.28 374.87 312.28 374.76 296.7 359.18 296.81"/>
          <polygon class="cls-4" points="296.86 327.97 296.99 343.43 312.55 343.43 312.44 327.86 296.86 327.97"/>
          <polygon class="cls-4" points="328.02 327.97 328.15 343.43 343.71 343.43 343.6 327.86 328.02 327.97"/>
          <polygon class="cls-4" points="359.18 327.97 359.31 343.43 374.87 343.43 374.76 327.86 359.18 327.97"/>
          <polygon class="cls-4" points="296.86 359.12 296.99 374.59 312.55 374.59 312.44 359.01 296.86 359.12"/>
          <polygon class="cls-4" points="328.02 359.12 328.15 374.59 343.71 374.59 343.6 359.01 328.02 359.12"/>
          <polygon class="cls-4" points="359.18 359.12 359.31 374.59 374.87 374.59 374.76 359.01 359.18 359.12"/>
          <polygon class="cls-1" points="281.29 281.12 281.29 296.7 296.86 296.81 296.86 281.12 281.29 281.12"/>
          <polygon class="cls-1" points="312.44 281.12 312.44 296.7 328.02 296.81 328.02 281.12 312.44 281.12"/>
          <polygon class="cls-1" points="343.6 281.12 343.6 296.7 359.18 296.81 359.18 281.12 343.6 281.12"/>
          <polygon class="cls-1" points="281.29 312.28 281.29 327.86 296.86 327.97 296.86 312.28 281.29 312.28"/>
          <polygon class="cls-1" points="312.44 312.28 312.44 327.86 328.02 327.97 328.02 312.28 312.44 312.28"/>
          <polygon class="cls-1" points="343.6 312.28 343.6 327.86 359.18 327.97 359.18 312.28 343.6 312.28"/>
          <polygon class="cls-1" points="281.29 343.43 281.29 359.01 296.86 359.12 296.86 343.43 281.29 343.43"/>
          <polygon class="cls-1" points="312.44 343.43 312.44 359.01 328.02 359.12 328.02 343.43 312.44 343.43"/>
          <polygon class="cls-1" points="343.6 343.43 343.6 359.01 359.18 359.12 359.18 343.43 343.6 343.43"/>
        </g>
        <g>
          <polygon class="cls-4" points="203.56 359.07 219.03 358.94 219.03 343.38 203.45 343.49 203.56 359.07"/>
          <polygon class="cls-4" points="203.56 327.91 219.03 327.78 219.03 312.22 203.45 312.33 203.56 327.91"/>
          <polygon class="cls-4" points="203.56 296.75 219.03 296.62 219.03 281.06 203.45 281.17 203.56 296.75"/>
          <polygon class="cls-4" points="234.71 359.07 250.18 358.94 250.18 343.38 234.6 343.49 234.71 359.07"/>
          <polygon class="cls-4" points="234.71 327.91 250.18 327.78 250.18 312.22 234.6 312.33 234.71 327.91"/>
          <polygon class="cls-4" points="234.71 296.75 250.18 296.62 250.18 281.06 234.6 281.17 234.71 296.75"/>
          <polygon class="cls-4" points="265.87 359.07 281.34 358.94 281.34 343.38 265.76 343.49 265.87 359.07"/>
          <polygon class="cls-4" points="265.87 327.91 281.34 327.78 281.34 312.22 265.76 312.33 265.87 327.91"/>
          <polygon class="cls-4" points="265.87 296.75 281.34 296.62 281.34 281.06 265.76 281.17 265.87 296.75"/>
          <polygon class="cls-1" points="187.87 374.65 203.45 374.65 203.56 359.07 187.87 359.07 187.87 374.65"/>
          <polygon class="cls-1" points="187.87 343.49 203.45 343.49 203.56 327.91 187.87 327.91 187.87 343.49"/>
          <polygon class="cls-1" points="187.87 312.33 203.45 312.33 203.56 296.75 187.87 296.75 187.87 312.33"/>
          <polygon class="cls-1" points="219.03 374.65 234.6 374.65 234.71 359.07 219.03 359.07 219.03 374.65"/>
          <polygon class="cls-1" points="219.03 343.49 234.6 343.49 234.71 327.91 219.03 327.91 219.03 343.49"/>
          <polygon class="cls-1" points="219.03 312.33 234.6 312.33 234.71 296.75 219.03 296.75 219.03 312.33"/>
          <polygon class="cls-1" points="250.18 374.65 265.76 374.65 265.87 359.07 250.18 359.07 250.18 374.65"/>
          <polygon class="cls-1" points="250.18 343.49 265.76 343.49 265.87 327.91 250.18 327.91 250.18 343.49"/>
          <polygon class="cls-1" points="250.18 312.33 265.76 312.33 265.87 296.75 250.18 296.75 250.18 312.33"/>
        </g>
        <g>
          <polygon class="cls-4" points="359.12 203.17 343.65 203.3 343.65 218.86 359.23 218.75 359.12 203.17"/>
          <polygon class="cls-4" points="359.12 234.33 343.65 234.46 343.65 250.02 359.23 249.91 359.12 234.33"/>
          <polygon class="cls-4" points="359.12 265.49 343.65 265.62 343.65 281.17 359.23 281.06 359.12 265.49"/>
          <polygon class="cls-4" points="327.97 203.17 312.5 203.3 312.5 218.86 328.08 218.75 327.97 203.17"/>
          <polygon class="cls-4" points="327.97 234.33 312.5 234.46 312.5 250.02 328.08 249.91 327.97 234.33"/>
          <polygon class="cls-4" points="327.97 265.49 312.5 265.62 312.5 281.17 328.08 281.06 327.97 265.49"/>
          <polygon class="cls-4" points="296.81 203.17 281.34 203.3 281.34 218.86 296.92 218.75 296.81 203.17"/>
          <polygon class="cls-4" points="296.81 234.33 281.34 234.46 281.34 250.02 296.92 249.91 296.81 234.33"/>
          <polygon class="cls-4" points="296.81 265.49 281.34 265.62 281.34 281.17 296.92 281.06 296.81 265.49"/>
          <polygon class="cls-1" points="374.81 187.59 359.23 187.59 359.12 203.17 374.81 203.17 374.81 187.59"/>
          <polygon class="cls-1" points="374.81 218.75 359.23 218.75 359.12 234.33 374.81 234.33 374.81 218.75"/>
          <polygon class="cls-1" points="374.81 249.91 359.23 249.91 359.12 265.49 374.81 265.49 374.81 249.91"/>
          <polygon class="cls-1" points="343.65 187.59 328.08 187.59 327.97 203.17 343.65 203.17 343.65 187.59"/>
          <polygon class="cls-1" points="343.65 218.75 328.08 218.75 327.97 234.33 343.65 234.33 343.65 218.75"/>
          <polygon class="cls-1" points="343.65 249.91 328.08 249.91 327.97 265.49 343.65 265.49 343.65 249.91"/>
          <polygon class="cls-1" points="312.5 187.59 296.92 187.59 296.81 203.17 312.5 203.17 312.5 187.59"/>
          <polygon class="cls-1" points="312.5 218.75 296.92 218.75 296.81 234.33 312.5 234.33 312.5 218.75"/>
          <polygon class="cls-1" points="312.5 249.91 296.92 249.91 296.81 265.49 312.5 265.49 312.5 249.91"/>
        </g>
        <g>
          <polygon class="cls-4" points="265.82 265.43 265.69 249.96 250.13 249.96 250.24 265.54 265.82 265.43"/>
          <polygon class="cls-4" points="234.66 265.43 234.53 249.96 218.97 249.96 219.08 265.54 234.66 265.43"/>
          <polygon class="cls-4" points="203.5 265.43 203.37 249.96 187.81 249.96 187.92 265.54 203.5 265.43"/>
          <polygon class="cls-4" points="265.82 234.27 265.69 218.81 250.13 218.81 250.24 234.38 265.82 234.27"/>
          <polygon class="cls-4" points="234.66 234.27 234.53 218.81 218.97 218.81 219.08 234.38 234.66 234.27"/>
          <polygon class="cls-4" points="203.5 234.27 203.37 218.81 187.81 218.81 187.92 234.38 203.5 234.27"/>
          <polygon class="cls-4" points="265.82 203.12 265.69 187.65 250.13 187.65 250.24 203.23 265.82 203.12"/>
          <polygon class="cls-4" points="234.66 203.12 234.53 187.65 218.97 187.65 219.08 203.23 234.66 203.12"/>
          <polygon class="cls-1" points="281.4 281.12 281.4 265.54 265.82 265.43 265.82 281.12 281.4 281.12"/>
          <polygon class="cls-1" points="250.24 281.12 250.24 265.54 234.66 265.43 234.66 281.12 250.24 281.12"/>
          <polygon class="cls-1" points="219.08 281.12 219.08 265.54 203.5 265.43 203.5 281.12 219.08 281.12"/>
          <polygon class="cls-1" points="281.4 249.96 281.4 234.38 265.82 234.27 265.82 249.96 281.4 249.96"/>
          <polygon class="cls-1" points="250.24 249.96 250.24 234.38 234.66 234.27 234.66 249.96 250.24 249.96"/>
          <polygon class="cls-1" points="219.08 249.96 219.08 234.38 203.5 234.27 203.5 249.96 219.08 249.96"/>
          <polygon class="cls-1" points="281.4 218.81 281.4 203.23 265.82 203.12 265.82 218.81 281.4 218.81"/>
          <polygon class="cls-1" points="250.24 218.81 250.24 203.23 234.66 203.12 234.66 218.81 250.24 218.81"/>
          <polygon class="cls-1" points="219.08 218.81 219.08 203.23 203.5 203.12 203.5 218.81 219.08 218.81"/>
          <polygon class="cls-4" points="203.5 203.12 203.37 187.65 187.81 187.65 187.92 203.23 203.5 203.12"/>
        </g>
        <g>
          <polygon class="cls-4" points="172.24 265.43 172.11 249.96 156.55 249.96 156.66 265.54 172.24 265.43"/>
          <polygon class="cls-4" points="141.08 265.43 140.95 249.96 125.39 249.96 125.5 265.54 141.08 265.43"/>
          <polygon class="cls-4" points="109.92 265.43 109.79 249.96 94.23 249.96 94.34 265.54 109.92 265.43"/>
          <polygon class="cls-4" points="172.24 234.27 172.11 218.81 156.55 218.81 156.66 234.38 172.24 234.27"/>
          <polygon class="cls-4" points="141.08 234.27 140.95 218.81 125.39 218.81 125.5 234.38 141.08 234.27"/>
          <polygon class="cls-4" points="109.92 234.27 109.79 218.81 94.23 218.81 94.34 234.38 109.92 234.27"/>
          <polygon class="cls-4" points="172.24 203.12 172.11 187.65 156.55 187.65 156.66 203.23 172.24 203.12"/>
          <polygon class="cls-4" points="141.08 203.12 140.95 187.65 125.39 187.65 125.5 203.23 141.08 203.12"/>
          <polygon class="cls-4" points="109.92 203.12 109.79 187.65 94.23 187.65 94.34 203.23 109.92 203.12"/>
          <polygon class="cls-1" points="187.81 281.12 187.81 265.54 172.24 265.43 172.24 281.12 187.81 281.12"/>
          <polygon class="cls-1" points="156.66 281.12 156.66 265.54 141.08 265.43 141.08 281.12 156.66 281.12"/>
          <polygon class="cls-1" points="125.5 281.12 125.5 265.54 109.92 265.43 109.92 281.12 125.5 281.12"/>
          <polygon class="cls-1" points="187.81 249.96 187.81 234.38 172.24 234.27 172.24 249.96 187.81 249.96"/>
          <polygon class="cls-1" points="156.66 249.96 156.66 234.38 141.08 234.27 141.08 249.96 156.66 249.96"/>
          <polygon class="cls-1" points="125.5 249.96 125.5 234.38 109.92 234.27 109.92 249.96 125.5 249.96"/>
          <polygon class="cls-1" points="187.81 218.81 187.81 203.23 172.24 203.12 172.24 218.81 187.81 218.81"/>
          <polygon class="cls-1" points="156.66 218.81 156.66 203.23 141.08 203.12 141.08 218.81 156.66 218.81"/>
          <polygon class="cls-1" points="125.5 218.81 125.5 203.23 109.92 203.12 109.92 218.81 125.5 218.81"/>
        </g>
        <g>
          <polygon class="cls-4" points="109.98 359.07 125.45 358.94 125.45 343.38 109.87 343.49 109.98 359.07"/>
          <polygon class="cls-4" points="109.98 327.91 125.45 327.78 125.45 312.22 109.87 312.33 109.98 327.91"/>
          <polygon class="cls-4" points="109.98 296.75 125.45 296.62 125.45 281.06 109.87 281.17 109.98 296.75"/>
          <polygon class="cls-4" points="141.13 359.07 156.6 358.94 156.6 343.38 141.02 343.49 141.13 359.07"/>
          <polygon class="cls-4" points="141.13 327.91 156.6 327.78 156.6 312.22 141.02 312.33 141.13 327.91"/>
          <polygon class="cls-4" points="141.13 296.75 156.6 296.62 156.6 281.06 141.02 281.17 141.13 296.75"/>
          <polygon class="cls-4" points="172.29 359.07 187.76 358.94 187.76 343.38 172.18 343.49 172.29 359.07"/>
          <polygon class="cls-4" points="172.29 327.91 187.76 327.78 187.76 312.22 172.18 312.33 172.29 327.91"/>
          <polygon class="cls-4" points="172.29 296.75 187.76 296.62 187.76 281.06 172.18 281.17 172.29 296.75"/>
          <polygon class="cls-1" points="94.29 374.65 109.87 374.65 109.98 359.07 94.29 359.07 94.29 374.65"/>
          <polygon class="cls-1" points="94.29 343.49 109.87 343.49 109.98 327.91 94.29 327.91 94.29 343.49"/>
          <polygon class="cls-1" points="94.29 312.33 109.87 312.33 109.98 296.75 94.29 296.75 94.29 312.33"/>
          <polygon class="cls-1" points="125.45 374.65 141.02 374.65 141.13 359.07 125.45 359.07 125.45 374.65"/>
          <polygon class="cls-1" points="125.45 343.49 141.02 343.49 141.13 327.91 125.45 327.91 125.45 343.49"/>
          <polygon class="cls-1" points="125.45 312.33 141.02 312.33 141.13 296.75 125.45 296.75 125.45 312.33"/>
          <polygon class="cls-1" points="156.6 374.65 172.18 374.65 172.29 359.07 156.6 359.07 156.6 374.65"/>
          <polygon class="cls-1" points="156.6 343.49 172.18 343.49 172.29 327.91 156.6 327.91 156.6 343.49"/>
          <polygon class="cls-1" points="156.6 312.33 172.18 312.33 172.29 296.75 156.6 296.75 156.6 312.33"/>
        </g>
        <g>
          <polygon class="cls-4" points="78.6 203.17 63.13 203.3 63.13 218.86 78.71 218.75 78.6 203.17"/>
          <polygon class="cls-4" points="78.6 234.33 63.13 234.46 63.13 250.02 78.71 249.91 78.6 234.33"/>
          <polygon class="cls-4" points="78.6 265.49 63.13 265.62 63.13 281.17 78.71 281.06 78.6 265.49"/>
          <polygon class="cls-4" points="47.44 203.17 31.97 203.3 31.97 218.86 47.55 218.75 47.44 203.17"/>
          <polygon class="cls-4" points="47.44 234.33 31.97 234.46 31.97 250.02 47.55 249.91 47.44 234.33"/>
          <polygon class="cls-4" points="47.44 265.49 31.97 265.62 31.97 281.17 47.55 281.06 47.44 265.49"/>
          <polygon class="cls-4" points="16.29 203.17 .82 203.3 .82 218.86 16.4 218.75 16.29 203.17"/>
          <polygon class="cls-4" points="16.29 234.33 .82 234.46 .82 250.02 16.4 249.91 16.29 234.33"/>
          <polygon class="cls-4" points="16.29 265.49 .82 265.62 .82 281.17 16.4 281.06 16.29 265.49"/>
          <polygon class="cls-1" points="94.29 187.59 78.71 187.59 78.6 203.17 94.29 203.17 94.29 187.59"/>
          <polygon class="cls-1" points="94.29 218.75 78.71 218.75 78.6 234.33 94.29 234.33 94.29 218.75"/>
          <polygon class="cls-1" points="94.29 249.91 78.71 249.91 78.6 265.49 94.29 265.49 94.29 249.91"/>
          <polygon class="cls-1" points="63.13 187.59 47.55 187.59 47.44 203.17 63.13 203.17 63.13 187.59"/>
          <polygon class="cls-1" points="63.13 218.75 47.55 218.75 47.44 234.33 63.13 234.33 63.13 218.75"/>
          <polygon class="cls-1" points="63.13 249.91 47.55 249.91 47.44 265.49 63.13 265.49 63.13 249.91"/>
          <polygon class="cls-1" points="31.97 187.59 16.4 187.59 16.29 203.17 31.97 203.17 31.97 187.59"/>
          <polygon class="cls-1" points="31.97 218.75 16.4 218.75 16.29 234.33 31.97 234.33 31.97 218.75"/>
          <polygon class="cls-1" points="31.97 249.91 16.4 249.91 16.29 265.49 31.97 265.49 31.97 249.91"/>
        </g>
        <g>
          <polygon class="cls-4" points="16.34 296.81 16.47 312.28 32.03 312.28 31.92 296.7 16.34 296.81"/>
          <polygon class="cls-4" points="47.5 296.81 47.63 312.28 63.19 312.28 63.08 296.7 47.5 296.81"/>
          <polygon class="cls-4" points="78.65 296.81 78.78 312.28 94.34 312.28 94.23 296.7 78.65 296.81"/>
          <polygon class="cls-4" points="16.34 327.97 16.47 343.43 32.03 343.43 31.92 327.86 16.34 327.97"/>
          <polygon class="cls-4" points="47.5 327.97 47.63 343.43 63.19 343.43 63.08 327.86 47.5 327.97"/>
          <polygon class="cls-4" points="78.65 327.97 78.78 343.43 94.34 343.43 94.23 327.86 78.65 327.97"/>
          <polygon class="cls-4" points="16.34 359.12 16.47 374.59 32.03 374.59 31.92 359.01 16.34 359.12"/>
          <polygon class="cls-4" points="47.5 359.12 47.63 374.59 63.19 374.59 63.08 359.01 47.5 359.12"/>
          <polygon class="cls-1" points=".76 281.12 .76 296.7 16.34 296.81 16.34 281.12 .76 281.12"/>
          <polygon class="cls-1" points="31.92 281.12 31.92 296.7 47.5 296.81 47.5 281.12 31.92 281.12"/>
          <polygon class="cls-1" points="63.08 281.12 63.08 296.7 78.65 296.81 78.65 281.12 63.08 281.12"/>
          <polygon class="cls-1" points=".76 312.28 .76 327.86 16.34 327.97 16.34 312.28 .76 312.28"/>
          <polygon class="cls-1" points="31.92 312.28 31.92 327.86 47.5 327.97 47.5 312.28 31.92 312.28"/>
          <polygon class="cls-1" points="63.08 312.28 63.08 327.86 78.65 327.97 78.65 312.28 63.08 312.28"/>
          <polygon class="cls-1" points=".76 343.43 .76 359.01 16.34 359.12 16.34 343.43 .76 343.43"/>
          <polygon class="cls-1" points="31.92 343.43 31.92 359.01 47.5 359.12 47.5 343.43 31.92 343.43"/>
          <polygon class="cls-1" points="63.08 343.43 63.08 359.01 78.65 359.12 78.65 343.43 63.08 343.43"/>
          <polygon class="cls-4" points="78.65 359.12 78.78 374.59 94.34 374.59 94.23 359.01 78.65 359.12"/>
        </g>
        <g>
          <polygon class="cls-4" points="16.4 16.45 16.53 31.92 32.08 31.92 31.97 16.34 16.4 16.45"/>
          <polygon class="cls-4" points="47.55 16.45 47.68 31.92 63.24 31.92 63.13 16.34 47.55 16.45"/>
          <polygon class="cls-4" points="78.71 16.45 78.84 31.92 94.4 31.92 94.29 16.34 78.71 16.45"/>
          <polygon class="cls-4" points="16.4 47.61 16.53 63.08 32.08 63.08 31.97 47.5 16.4 47.61"/>
          <polygon class="cls-4" points="47.55 47.61 47.68 63.08 63.24 63.08 63.13 47.5 47.55 47.61"/>
          <polygon class="cls-4" points="78.71 47.61 78.84 63.08 94.4 63.08 94.29 47.5 78.71 47.61"/>
          <polygon class="cls-4" points="16.4 78.76 16.53 94.23 32.08 94.23 31.97 78.65 16.4 78.76"/>
          <polygon class="cls-4" points="47.55 78.76 47.68 94.23 63.24 94.23 63.13 78.65 47.55 78.76"/>
          <polygon class="cls-4" points="78.71 78.76 78.84 94.23 94.4 94.23 94.29 78.65 78.71 78.76"/>
          <polygon class="cls-1" points=".82 .76 .82 16.34 16.4 16.45 16.4 .76 .82 .76"/>
          <polygon class="cls-1" points="31.97 .76 31.97 16.34 47.55 16.45 47.55 .76 31.97 .76"/>
          <polygon class="cls-1" points="63.13 .76 63.13 16.34 78.71 16.45 78.71 .76 63.13 .76"/>
          <polygon class="cls-1" points=".82 31.92 .82 47.5 16.4 47.61 16.4 31.92 .82 31.92"/>
          <polygon class="cls-1" points="31.97 31.92 31.97 47.5 47.55 47.61 47.55 31.92 31.97 31.92"/>
          <polygon class="cls-1" points="63.13 31.92 63.13 47.5 78.71 47.61 78.71 31.92 63.13 31.92"/>
          <polygon class="cls-1" points=".82 63.08 .82 78.65 16.4 78.76 16.4 63.08 .82 63.08"/>
          <polygon class="cls-1" points="31.97 63.08 31.97 78.65 47.55 78.76 47.55 63.08 31.97 63.08"/>
          <polygon class="cls-1" points="63.13 63.08 63.13 78.65 78.71 78.76 78.71 63.08 63.13 63.08"/>
        </g>
        <g>
          <polygon class="cls-4" points="110.03 78.71 125.5 78.58 125.5 63.02 109.92 63.13 110.03 78.71"/>
          <polygon class="cls-4" points="110.03 47.55 125.5 47.42 125.5 31.86 109.92 31.97 110.03 47.55"/>
          <polygon class="cls-4" points="110.03 16.4 125.5 16.27 125.5 .71 109.92 .82 110.03 16.4"/>
          <polygon class="cls-4" points="141.19 78.71 156.66 78.58 156.66 63.02 141.08 63.13 141.19 78.71"/>
          <polygon class="cls-4" points="141.19 47.55 156.66 47.42 156.66 31.86 141.08 31.97 141.19 47.55"/>
          <polygon class="cls-4" points="141.19 16.4 156.66 16.27 156.66 .71 141.08 .82 141.19 16.4"/>
          <polygon class="cls-4" points="172.35 78.71 187.81 78.58 187.81 63.02 172.24 63.13 172.35 78.71"/>
          <polygon class="cls-4" points="172.35 47.55 187.81 47.42 187.81 31.86 172.24 31.97 172.35 47.55"/>
          <polygon class="cls-4" points="172.35 16.4 187.81 16.27 187.81 .71 172.24 .82 172.35 16.4"/>
          <polygon class="cls-1" points="94.34 94.29 109.92 94.29 110.03 78.71 94.34 78.71 94.34 94.29"/>
          <polygon class="cls-1" points="94.34 63.13 109.92 63.13 110.03 47.55 94.34 47.55 94.34 63.13"/>
          <polygon class="cls-1" points="94.34 31.97 109.92 31.97 110.03 16.4 94.34 16.4 94.34 31.97"/>
          <polygon class="cls-1" points="125.5 94.29 141.08 94.29 141.19 78.71 125.5 78.71 125.5 94.29"/>
          <polygon class="cls-1" points="125.5 63.13 141.08 63.13 141.19 47.55 125.5 47.55 125.5 63.13"/>
          <polygon class="cls-1" points="125.5 31.97 141.08 31.97 141.19 16.4 125.5 16.4 125.5 31.97"/>
          <polygon class="cls-1" points="156.66 94.29 172.24 94.29 172.35 78.71 156.66 78.71 156.66 94.29"/>
          <polygon class="cls-1" points="156.66 63.13 172.24 63.13 172.35 47.55 156.66 47.55 156.66 63.13"/>
          <polygon class="cls-1" points="156.66 31.97 172.24 31.97 172.35 16.4 156.66 16.4 156.66 31.97"/>
        </g>
        <g>
          <polygon class="cls-4" points="78.65 109.76 63.19 109.89 63.19 125.45 78.76 125.33 78.65 109.76"/>
          <polygon class="cls-4" points="78.65 140.91 63.19 141.04 63.19 156.6 78.76 156.49 78.65 140.91"/>
          <polygon class="cls-4" points="78.65 172.07 63.19 172.2 63.19 187.76 78.77 187.65 78.65 172.07"/>
          <polygon class="cls-4" points="47.5 109.76 32.03 109.89 32.03 125.45 47.61 125.33 47.5 109.76"/>
          <polygon class="cls-4" points="47.5 140.91 32.03 141.04 32.03 156.6 47.61 156.49 47.5 140.91"/>
          <polygon class="cls-4" points="47.5 172.07 32.03 172.2 32.03 187.76 47.61 187.65 47.5 172.07"/>
          <polygon class="cls-4" points="16.34 109.76 .87 109.89 .87 125.45 16.45 125.33 16.34 109.76"/>
          <polygon class="cls-4" points="16.34 140.91 .87 141.04 .87 156.6 16.45 156.49 16.34 140.91"/>
          <polygon class="cls-4" points="16.34 172.07 .87 172.2 .87 187.76 16.45 187.65 16.34 172.07"/>
          <polygon class="cls-1" points="94.34 94.18 78.76 94.18 78.65 109.76 94.34 109.76 94.34 94.18"/>
          <polygon class="cls-1" points="94.34 125.33 78.76 125.33 78.65 140.91 94.34 140.91 94.34 125.33"/>
          <polygon class="cls-1" points="94.34 156.49 78.76 156.49 78.65 172.07 94.34 172.07 94.34 156.49"/>
          <polygon class="cls-1" points="63.19 94.18 47.61 94.18 47.5 109.76 63.19 109.76 63.19 94.18"/>
          <polygon class="cls-1" points="63.19 125.33 47.61 125.33 47.5 140.91 63.19 140.91 63.19 125.33"/>
          <polygon class="cls-1" points="63.19 156.49 47.61 156.49 47.5 172.07 63.19 172.07 63.19 156.49"/>
          <polygon class="cls-1" points="32.03 94.18 16.45 94.18 16.34 109.76 32.03 109.76 32.03 94.18"/>
          <polygon class="cls-1" points="32.03 125.33 16.45 125.33 16.34 140.91 32.03 140.91 32.03 125.33"/>
          <polygon class="cls-1" points="32.03 156.49 16.45 156.49 16.34 172.07 32.03 172.07 32.03 156.49"/>
        </g>
        <g>
          <polygon class="cls-4" points="172.29 172.02 172.16 156.55 156.6 156.55 156.71 172.13 172.29 172.02"/>
          <polygon class="cls-4" points="141.13 172.02 141 156.55 125.45 156.55 125.56 172.13 141.13 172.02"/>
          <polygon class="cls-4" points="109.98 172.02 109.85 156.55 94.29 156.55 94.4 172.13 109.98 172.02"/>
          <polygon class="cls-4" points="172.29 140.86 172.16 125.39 156.6 125.39 156.71 140.97 172.29 140.86"/>
          <polygon class="cls-4" points="141.13 140.86 141 125.39 125.45 125.39 125.56 140.97 141.13 140.86"/>
          <polygon class="cls-4" points="109.98 140.86 109.85 125.39 94.29 125.39 94.4 140.97 109.98 140.86"/>
          <polygon class="cls-4" points="172.29 109.7 172.16 94.23 156.6 94.23 156.71 109.81 172.29 109.7"/>
          <polygon class="cls-4" points="141.13 109.7 141 94.23 125.45 94.23 125.56 109.81 141.13 109.7"/>
          <polygon class="cls-1" points="187.87 187.7 187.87 172.13 172.29 172.02 172.29 187.7 187.87 187.7"/>
          <polygon class="cls-1" points="156.71 187.7 156.71 172.13 141.13 172.02 141.13 187.7 156.71 187.7"/>
          <polygon class="cls-1" points="125.56 187.7 125.56 172.13 109.98 172.02 109.98 187.7 125.56 187.7"/>
          <polygon class="cls-1" points="187.87 156.55 187.87 140.97 172.29 140.86 172.29 156.55 187.87 156.55"/>
          <polygon class="cls-1" points="156.71 156.55 156.71 140.97 141.13 140.86 141.13 156.55 156.71 156.55"/>
          <polygon class="cls-1" points="125.56 156.55 125.56 140.97 109.98 140.86 109.98 156.55 125.56 156.55"/>
          <polygon class="cls-1" points="187.87 125.39 187.87 109.81 172.29 109.7 172.29 125.39 187.87 125.39"/>
          <polygon class="cls-1" points="156.71 125.39 156.71 109.81 141.13 109.7 141.13 125.39 156.71 125.39"/>
          <polygon class="cls-1" points="125.56 125.39 125.56 109.81 109.98 109.7 109.98 125.39 125.56 125.39"/>
          <polygon class="cls-4" points="109.98 109.7 109.85 94.23 94.29 94.23 94.4 109.81 109.98 109.7"/>
        </g>
        <g>
          <polygon class="cls-4" points="265.87 172.02 265.74 156.55 250.18 156.55 250.29 172.13 265.87 172.02"/>
          <polygon class="cls-4" points="234.71 172.02 234.58 156.55 219.03 156.55 219.14 172.13 234.71 172.02"/>
          <polygon class="cls-4" points="203.56 172.02 203.43 156.55 187.87 156.55 187.98 172.13 203.56 172.02"/>
          <polygon class="cls-4" points="265.87 140.86 265.74 125.39 250.18 125.39 250.29 140.97 265.87 140.86"/>
          <polygon class="cls-4" points="234.71 140.86 234.58 125.39 219.03 125.39 219.14 140.97 234.71 140.86"/>
          <polygon class="cls-4" points="203.56 140.86 203.43 125.39 187.87 125.39 187.98 140.97 203.56 140.86"/>
          <polygon class="cls-4" points="265.87 109.7 265.74 94.23 250.18 94.23 250.29 109.81 265.87 109.7"/>
          <polygon class="cls-4" points="234.71 109.7 234.58 94.23 219.03 94.23 219.14 109.81 234.71 109.7"/>
          <polygon class="cls-4" points="203.56 109.7 203.43 94.23 187.87 94.23 187.98 109.81 203.56 109.7"/>
          <polygon class="cls-1" points="281.45 187.7 281.45 172.13 265.87 172.02 265.87 187.7 281.45 187.7"/>
          <polygon class="cls-1" points="250.29 187.7 250.29 172.13 234.71 172.02 234.72 187.7 250.29 187.7"/>
          <polygon class="cls-1" points="219.14 187.7 219.14 172.13 203.56 172.02 203.56 187.7 219.14 187.7"/>
          <polygon class="cls-1" points="281.45 156.55 281.45 140.97 265.87 140.86 265.87 156.55 281.45 156.55"/>
          <polygon class="cls-1" points="250.29 156.55 250.29 140.97 234.71 140.86 234.71 156.55 250.29 156.55"/>
          <polygon class="cls-1" points="219.14 156.55 219.14 140.97 203.56 140.86 203.56 156.55 219.14 156.55"/>
          <polygon class="cls-1" points="281.45 125.39 281.45 109.81 265.87 109.7 265.87 125.39 281.45 125.39"/>
          <polygon class="cls-1" points="250.29 125.39 250.29 109.81 234.71 109.7 234.71 125.39 250.29 125.39"/>
          <polygon class="cls-1" points="219.14 125.39 219.14 109.81 203.56 109.7 203.56 125.39 219.14 125.39"/>
        </g>
        <g>
          <polygon class="cls-4" points="203.61 78.71 219.08 78.58 219.08 63.02 203.5 63.13 203.61 78.71"/>
          <polygon class="cls-4" points="203.61 47.55 219.08 47.42 219.08 31.86 203.5 31.97 203.61 47.55"/>
          <polygon class="cls-4" points="203.61 16.4 219.08 16.27 219.08 .71 203.5 .82 203.61 16.4"/>
          <polygon class="cls-4" points="234.77 78.71 250.24 78.58 250.24 63.02 234.66 63.13 234.77 78.71"/>
          <polygon class="cls-4" points="234.77 47.55 250.24 47.42 250.24 31.86 234.66 31.97 234.77 47.55"/>
          <polygon class="cls-4" points="234.77 16.4 250.24 16.27 250.24 .71 234.66 .82 234.77 16.4"/>
          <polygon class="cls-4" points="265.93 78.71 281.4 78.58 281.4 63.02 265.82 63.13 265.93 78.71"/>
          <polygon class="cls-4" points="265.93 47.55 281.4 47.42 281.4 31.86 265.82 31.97 265.93 47.55"/>
          <polygon class="cls-4" points="265.93 16.4 281.4 16.27 281.4 .71 265.82 .82 265.93 16.4"/>
          <polygon class="cls-1" points="187.92 94.29 203.5 94.29 203.61 78.71 187.92 78.71 187.92 94.29"/>
          <polygon class="cls-1" points="187.92 63.13 203.5 63.13 203.61 47.55 187.92 47.55 187.92 63.13"/>
          <polygon class="cls-1" points="187.92 31.97 203.5 31.97 203.61 16.4 187.92 16.4 187.92 31.97"/>
          <polygon class="cls-1" points="219.08 94.29 234.66 94.29 234.77 78.71 219.08 78.71 219.08 94.29"/>
          <polygon class="cls-1" points="219.08 63.13 234.66 63.13 234.77 47.55 219.08 47.55 219.08 63.13"/>
          <polygon class="cls-1" points="219.08 31.97 234.66 31.97 234.77 16.4 219.08 16.4 219.08 31.97"/>
          <polygon class="cls-1" points="250.24 94.29 265.82 94.29 265.93 78.71 250.24 78.71 250.24 94.29"/>
          <polygon class="cls-1" points="250.24 63.13 265.82 63.13 265.93 47.55 250.24 47.55 250.24 63.13"/>
          <polygon class="cls-1" points="250.24 31.97 265.82 31.97 265.93 16.4 250.24 16.4 250.24 31.97"/>
        </g>
        <g>
          <polygon class="cls-4" points="359.29 109.59 343.82 109.72 343.82 125.28 359.4 125.17 359.29 109.59"/>
          <polygon class="cls-4" points="359.29 140.75 343.82 140.88 343.82 156.44 359.4 156.33 359.29 140.75"/>
          <polygon class="cls-4" points="359.29 171.9 343.82 172.04 343.82 187.59 359.4 187.48 359.29 171.9"/>
          <polygon class="cls-4" points="328.13 109.59 312.66 109.72 312.66 125.28 328.24 125.17 328.13 109.59"/>
          <polygon class="cls-4" points="328.13 140.75 312.66 140.88 312.66 156.44 328.24 156.33 328.13 140.75"/>
          <polygon class="cls-4" points="328.13 171.9 312.66 172.04 312.66 187.59 328.24 187.48 328.13 171.9"/>
          <polygon class="cls-4" points="296.97 109.59 281.51 109.72 281.51 125.28 297.08 125.17 296.97 109.59"/>
          <polygon class="cls-4" points="296.97 140.75 281.51 140.88 281.51 156.44 297.08 156.33 296.97 140.75"/>
          <polygon class="cls-4" points="296.97 171.9 281.51 172.04 281.51 187.59 297.08 187.48 296.97 171.9"/>
          <polygon class="cls-1" points="374.98 94.01 359.4 94.01 359.29 109.59 374.98 109.59 374.98 94.01"/>
          <polygon class="cls-1" points="374.98 125.17 359.4 125.17 359.29 140.75 374.98 140.75 374.98 125.17"/>
          <polygon class="cls-1" points="374.98 156.33 359.4 156.33 359.29 171.9 374.98 171.9 374.98 156.33"/>
          <polygon class="cls-1" points="343.82 94.01 328.24 94.01 328.13 109.59 343.82 109.59 343.82 94.01"/>
          <polygon class="cls-1" points="343.82 125.17 328.24 125.17 328.13 140.75 343.82 140.75 343.82 125.17"/>
          <polygon class="cls-1" points="343.82 156.33 328.24 156.33 328.13 171.9 343.82 171.9 343.82 156.33"/>
          <polygon class="cls-1" points="312.66 94.01 297.08 94.01 296.97 109.59 312.66 109.59 312.66 94.01"/>
          <polygon class="cls-1" points="312.66 125.17 297.08 125.17 296.97 140.75 312.66 140.75 312.66 125.17"/>
          <polygon class="cls-1" points="312.66 156.33 297.08 156.33 296.97 171.9 312.66 171.9 312.66 156.33"/>
        </g>
        <g>
          <polygon class="cls-4" points="296.92 16.45 297.05 31.92 312.61 31.92 312.5 16.34 296.92 16.45"/>
          <polygon class="cls-4" points="328.08 16.45 328.21 31.92 343.76 31.92 343.65 16.34 328.08 16.45"/>
          <polygon class="cls-4" points="359.23 16.45 359.36 31.92 374.92 31.92 374.81 16.34 359.23 16.45"/>
          <polygon class="cls-4" points="296.92 47.61 297.05 63.08 312.61 63.08 312.5 47.5 296.92 47.61"/>
          <polygon class="cls-4" points="328.08 47.61 328.21 63.08 343.76 63.08 343.65 47.5 328.08 47.61"/>
          <polygon class="cls-4" points="359.23 47.61 359.36 63.08 374.92 63.08 374.81 47.5 359.23 47.61"/>
          <polygon class="cls-4" points="296.92 78.76 297.05 94.23 312.61 94.23 312.5 78.65 296.92 78.76"/>
          <polygon class="cls-4" points="328.08 78.76 328.21 94.23 343.76 94.23 343.65 78.65 328.08 78.76"/>
          <polygon class="cls-1" points="281.34 .76 281.34 16.34 296.92 16.45 296.92 .76 281.34 .76"/>
          <polygon class="cls-1" points="312.5 .76 312.5 16.34 328.08 16.45 328.08 .76 312.5 .76"/>
          <polygon class="cls-1" points="343.65 .76 343.65 16.34 359.23 16.45 359.23 .76 343.65 .76"/>
          <polygon class="cls-1" points="281.34 31.92 281.34 47.5 296.92 47.61 296.92 31.92 281.34 31.92"/>
          <polygon class="cls-1" points="312.5 31.92 312.5 47.5 328.08 47.61 328.08 31.92 312.5 31.92"/>
          <polygon class="cls-1" points="343.65 31.92 343.65 47.5 359.23 47.61 359.23 31.92 343.65 31.92"/>
          <polygon class="cls-1" points="281.34 63.08 281.34 78.65 296.92 78.76 296.92 63.08 281.34 63.08"/>
          <polygon class="cls-1" points="312.5 63.08 312.5 78.65 328.08 78.76 328.08 63.08 312.5 63.08"/>
          <polygon class="cls-1" points="343.65 63.08 343.65 78.65 359.23 78.76 359.23 63.08 343.65 63.08"/>
          <polygon class="cls-4" points="359.23 78.76 359.36 94.23 374.92 94.23 374.81 78.65 359.23 78.76"/>
        </g>
        <g id="IIII_3_YING-MUT" data-name="IIII/3/YING-MUT">
          <rect class="cls-3" x="94.3" y="94.21" width="187.05" height="186.94"/>
          <g>
            <polyline class="cls-3" points="281.23 .71 281.35 94.21 374.7 94.18"/>
            <polyline class="cls-3" points="374.7 281.12 281.35 281.15 281.23 374.59"/>
            <polyline class="cls-3" points="94.29 374.59 94.3 281.15 .82 281.12"/>
            <polyline class="cls-3" points="94.29 .71 94.3 94.21 .82 94.18"/>
          </g>
        </g>
      </g>
    </g>
  </g>
</svg>